<svg xmlns="http://www.w3.org/2000/svg" enable-background="new 0 0 100 100" viewBox="0 0 100 100" id="forum">
  <path d="M92.12,12.63H37.23c-3.33,0-6.03,2.7-6.03,6.03v10.53c1.56-0.15,3.15-0.24,4.77-0.24c19.88,0,36.06,11.83,36.06,26.38
			c0,0.24-0.01,0.48-0.02,0.71h4.78c-0.72,4.32-2.72,12.6-7.67,16.04c0,0,13.43-4.86,18.58-16.04h4.43c3.33,0,6.03-2.7,6.03-6.03
			V18.66C98.15,15.33,95.45,12.63,92.12,12.63z"></path>
  <path d="M58.18,87.37l-5.36-0.3c-10.48-0.59-15.57-4.22-18.04-7.32C16.27,79.3,1.85,68.64,1.85,55.33
			c0-13.48,15.31-24.44,34.12-24.44c18.81,0,34.12,10.96,34.12,24.44c0,10.45-9.13,19.64-22.81,23.07c0.94,4.5,5.94,6.77,5.99,6.8
			L58.18,87.37z M35.97,32.85c-17.73,0-32.16,10.08-32.16,22.48c0,12.14,14.12,22.21,31.48,22.47l0.49,0.01l0.29,0.39
			c1.8,2.44,5.48,5.38,12.95,6.52c-1.74-1.52-3.54-3.82-3.81-6.97l-0.07-0.85l0.83-0.19c13.26-3.04,22.17-11.62,22.17-21.37
			C68.13,42.94,53.7,32.85,35.97,32.85z"></path>
</svg>
